<?xml version="1.0" encoding="UTF-8"?>
<!-- Created with Inkscape (http://www.inkscape.org/) -->
<svg id="Amiga_Technologies_GmbH_Logo" version="1.1" width="1113px" height="422.01px" viewBox="0 0 1113 422.01" xmlns="http://www.w3.org/2000/svg">
    <g fill="#000">
        <path d="m35.467 382.02 88.731-244.5 12.331 0.199c0.915 0.015 81.901 232.76 81.901 233.96l26 0.339v10h-69.769l-25.711-72.023-76.904 0.523-25.364 71.5zm108.99-82.75-32.456-97.124-35.525 97.874z"/>
        <path d="m258.43 152.02h-35v-9l92.5 4e-3 49.378 160.17 51.585-160.18h55.537v229h33v10h-79l-0.518-222.82-71.568 222.82h-12.719l-71.116-223.5-0.079 223.5h-12z"/>
        <path d="m520.43 372.02h33v-229h81v9h-35v220h35v10h-114z"/>
        <path d="m562.78 110.56-16.259-57.761 56.654-17.33 18.847 57.754z" fill="#fd0000"/>
        <path d="m753.14 385.97c-21.895-2.284-39.04-9.838-55.972-24.662-23.448-20.528-35.461-41.106-41.4-70.917-2.524-12.67-2.535-41.666-0.019-53.34 5.364-24.892 18.296-49.174 36.176-67.923 10.287-10.788 18.779-17.206 30-22.677 13.494-6.58 22.254-8.584 40.077-9.171 29.343-0.967 49.018 3.813 73.591 17.878l10.832 6.2v48.659c-4.273-0.714-11.971 1.91-15-1.485 0-2.933-7.25-23.147-10.591-29.53-7.558-14.439-19.682-25.375-33.409-30.137-5.382-1.866-8.565-2.247-18.5-2.213-19.921 0.069-33.08 4.873-43.276 15.799-10.886 11.666-16.048 26.739-18.189 53.11-1.376 16.947-1.326 85.681 0.073 98.667 3.918 36.387 16.632 55.021 41.892 61.396 9.319 2.352 28.216 1.512 36.419-1.618 7.178-2.74 13.898-8.708 17.247-15.318 4.11-8.11 5.297-16.354 5.316-36.921l0.018-18.75h-36v-9h88.257l-0.699 10.25c-1.347 19.725-5.083 32.18-13.526 45.089-11.721 17.923-33.128 31.419-56.532 35.641-8.651 1.561-26.596 2.036-36.785 0.973z"/>
        <path d="m868.52 382.02 88.731-244.5 12.33 0.199c0.92 0.015 81.904 232.76 81.904 233.96l26 0.339v10h-69.77l-25.714-72.023-76.902 0.523-25.363 71.5zm108.99-82.75-32.46-97.124-35.525 97.874z"/>
    </g>
</svg>
